<?xml version="1.0" encoding="UTF-8"?>
<svg version="1.1" xmlns="http://www.w3.org/2000/svg" width="512" height="512">
<path d="M0 0 C168.96 0 337.92 0 512 0 C512 168.96 512 337.92 512 512 C343.04 512 174.08 512 0 512 C0 343.04 0 174.08 0 0 Z " fill="#9DAF24" transform="translate(0,0)"/>
<path d="M0 0 C2.6875 2.3125 2.6875 2.3125 5 5 C5.886875 5.969375 6.77375 6.93875 7.6875 7.9375 C12.40814568 14.1891659 12.87231805 20.39182421 12 28 C10.40651313 34.7804563 7.99942932 41.35399935 5.75 47.9375 C5.10672399 49.85960216 4.46498095 51.78221799 3.82470703 53.70532227 C2.52187247 57.60997431 1.2100061 61.51139517 -0.11035156 65.41015625 C-1.81837203 70.45496065 -3.50453946 75.5066976 -5.1796875 80.5625 C-7.1359157 86.46254426 -9.10010829 92.35982032 -11.07421875 98.25390625 C-13.04346737 104.1339781 -15.00406377 110.01684464 -16.95703125 115.90234375 C-25.01090055 140.16022095 -25.01090055 140.16022095 -29.15234375 152.19921875 C-29.41670227 152.96770142 -29.68106079 153.73618408 -29.95343018 154.5279541 C-31.02803936 157.65048952 -32.10296274 160.77291633 -33.1786499 163.89508057 C-38.41946895 179.12336816 -43.4133907 194.42861707 -48.33154297 209.76391602 C-57.30405244 237.66660797 -57.30405244 237.66660797 -66.13671875 243.3828125 C-72.94889994 246.78295878 -79.25978078 246.89131133 -86.5625 245.0625 C-94.48764292 242.13906441 -99.36785447 234.26429106 -103 227 C-103.433125 225.89205078 -103.433125 225.89205078 -103.875 224.76171875 C-112.92154545 202.55370613 -126.36090627 181.12999777 -142 163 C-142.495 162.37222656 -142.99 161.74445313 -143.5 161.09765625 C-147.93080645 155.54656067 -153.40566343 151.32886859 -159 147 C-159.5480127 146.57170898 -160.09602539 146.14341797 -160.66064453 145.70214844 C-170.18929078 138.29910245 -180.22231997 132.14899405 -190.74462891 126.26367188 C-193.49631567 124.72191709 -196.23287923 123.15473167 -198.96850586 121.5847168 C-201.64227173 120.05051675 -204.32162253 118.52613132 -207 117 C-207.58330078 116.65549805 -208.16660156 116.31099609 -208.76757812 115.95605469 C-212.11002361 113.99637926 -215.34133499 112.38868364 -219 111.125 C-226.25712453 108.2728069 -231.53963152 103.840808 -235.109375 96.8203125 C-237.2702486 89.97754611 -237.51508983 81.82650673 -234.85546875 75.109375 C-230.35443881 67.93622966 -224.06357455 64.70414585 -216.1171875 62.25 C-215.33375977 61.9991011 -214.55033203 61.74820221 -213.74316406 61.48970032 C-212.02810088 60.94127726 -210.31170983 60.39699355 -208.59417725 59.85635376 C-203.82726196 58.3551034 -199.07060993 56.82185056 -194.3125 55.29296875 C-193.27833954 54.96153366 -192.24417908 54.63009857 -191.17868042 54.28862 C-177.71248963 49.96271469 -164.30192874 45.46908074 -150.88773346 40.98516846 C-147.57498537 39.87802675 -144.26182646 38.7721157 -140.94873047 37.66601562 C-136.24789335 36.09640455 -131.547381 34.52582473 -126.84716797 32.9543457 C-121.8990553 31.30006012 -116.949921 29.64886586 -112 28 C-110.948125 27.649375 -109.89625 27.29875 -108.8125 26.9375 C-107.884375 26.628125 -106.95625 26.31875 -106 26 C-104.98164063 25.6596875 -103.96328125 25.319375 -102.9140625 24.96875 C-101.14013278 24.37902538 -99.36450441 23.794338 -97.5859375 23.21875 C-92.88575102 21.69077418 -88.31261242 19.96358851 -83.75 18.0625 C-79.87977697 16.56718656 -75.93971304 15.29746305 -72 14 C-69.25715627 13.08790473 -66.51535607 12.17268457 -63.7734375 11.2578125 C-62.2304852 10.74344022 -60.6875161 10.22911836 -59.14453125 9.71484375 C-58.35900879 9.45300293 -57.57348633 9.19116211 -56.76416016 8.92138672 C-53.2199707 7.73999023 -53.2199707 7.73999023 -49.67578125 6.55859375 C-48.90574265 6.30176819 -48.13570404 6.04494263 -47.34233093 5.78033447 C-45.80151647 5.26702368 -44.26034987 4.75476863 -42.71882629 4.24359131 C-39.0544347 3.02710981 -35.39719987 1.79541595 -31.75268555 0.52050781 C-31.08206085 0.28878876 -30.41143616 0.0570697 -29.7204895 -0.18167114 C-27.91591422 -0.80630227 -26.1142089 -1.43920777 -24.31274414 -2.07275391 C-15.99540009 -4.40080113 -7.66722884 -3.97052922 0 0 Z " fill="#286119" transform="translate(352,151)"/>
<path d="M0 0 C0.66 0.33 1.32 0.66 2 1 C-0.97 3.97 -3.94 6.94 -7 10 C-7 7 -7 7 -4.625 4.4375 C-3.75875 3.633125 -2.8925 2.82875 -2 2 C-1.34 1.34 -0.68 0.68 0 0 Z " fill="#45741B" transform="translate(126,217)"/>
</svg>